<?xml version="1.0" encoding="utf-8"?>
<!-- Generator: Adobe Illustrator 16.0.0, SVG Export Plug-In . SVG Version: 6.00 Build 0)  -->
<!DOCTYPE svg PUBLIC "-//W3C//DTD SVG 1.1//EN" "http://www.w3.org/Graphics/SVG/1.1/DTD/svg11.dtd">
<svg version="1.1" id="Layer_1" xmlns="http://www.w3.org/2000/svg" xmlns:xlink="http://www.w3.org/1999/xlink" x="0px" y="0px"
	 width="864px" height="504px" viewBox="0 0 864 504" enable-background="new 0 0 864 504" xml:space="preserve">
<line fill="none" stroke="#B61E3F" stroke-width="2" stroke-miterlimit="10" x1="255.249" y1="317.982" x2="620.041" y2="317.982"/>
<path fill="none" stroke="#B61E3F" stroke-width="2" stroke-miterlimit="10" d="M562.32,309.68"/>
<polyline fill="none" stroke="#B61E3F" stroke-width="2" stroke-miterlimit="10" points="573.44,314.45 573.601,314.52 
	573.641,314.54 594.851,265.1 584.911,260.84 "/>
<g>
	<line fill="none" stroke="#B61E3F" stroke-width="2" stroke-miterlimit="10" x1="589.131" y1="272.72" x2="582.971" y2="270.08"/>
	<line fill="none" stroke="#B61E3F" stroke-width="2" stroke-miterlimit="10" x1="585.661" y1="280.82" x2="581.121" y2="278.87"/>
	<line fill="none" stroke="#B61E3F" stroke-width="2" stroke-miterlimit="10" x1="582.181" y1="288.91" x2="579.261" y2="287.66"/>
	<line fill="none" stroke="#B61E3F" stroke-width="2" stroke-miterlimit="10" x1="578.711" y1="297" x2="577.411" y2="296.44"/>
</g>
<polyline fill="none" stroke="#B61E3F" stroke-width="2" stroke-miterlimit="10" points="573.44,250.3 586.551,253.07 573.44,315.3 
	"/>
<g>
	<polyline fill="none" stroke="#B61E3F" stroke-width="2" stroke-miterlimit="10" points="581.851,263.29 579.961,262.89 
		573.44,261.53 	"/>
	<polyline fill="none" stroke="#B61E3F" stroke-width="2" stroke-miterlimit="10" points="579.701,273.48 575.771,272.65 
		573.44,272.16 	"/>
	<line fill="none" stroke="#B61E3F" stroke-width="2" stroke-miterlimit="10" x1="577.561" y1="283.67" x2="573.44" y2="282.8"/>
</g>
<rect x="554.441" y="245.441" fill="none" stroke="#B61E3F" stroke-width="2" stroke-miterlimit="10" width="19" height="70.25"/>
<g>
	
		<line fill="none" stroke="#B61E3F" stroke-width="2" stroke-miterlimit="10" x1="557.191" y1="257.566" x2="570.689" y2="257.566"/>
	
		<line fill="none" stroke="#B61E3F" stroke-width="2" stroke-miterlimit="10" x1="557.191" y1="269.066" x2="570.689" y2="269.066"/>
	
		<line fill="none" stroke="#B61E3F" stroke-width="2" stroke-miterlimit="10" x1="557.191" y1="280.566" x2="570.689" y2="280.566"/>
	<line fill="none" stroke="#B61E3F" stroke-width="2" stroke-miterlimit="10" x1="570.689" y1="292.07" x2="557.19" y2="292.07"/>
	
		<line fill="none" stroke="#B61E3F" stroke-width="2" stroke-miterlimit="10" x1="557.191" y1="303.566" x2="570.689" y2="303.566"/>
</g>
<path fill="none" stroke="#B61E3F" stroke-width="2" stroke-miterlimit="10" d="M499.701,297.98H358.25c-5.51,0-9.98-5.37-9.98-12
	v-103c0-6.63,4.47-12,9.98-12h160.05c5.51,0,9.97,5.37,9.97,12v77.35"/>
<g>
	
		<line fill="none" stroke="#B61E3F" stroke-width="2" stroke-miterlimit="10" x1="423.275" y1="297.982" x2="423.275" y2="317.982"/>
	
		<line fill="none" stroke="#B61E3F" stroke-width="2" stroke-miterlimit="10" x1="453.275" y1="297.982" x2="453.275" y2="317.982"/>
</g>
<path fill="none" stroke="#231F20" stroke-width="2" stroke-linecap="round" stroke-linejoin="round" stroke-miterlimit="10" d="
	M285.439,317.982"/>
<path fill="none" stroke="#231F20" stroke-width="2" stroke-linecap="round" stroke-linejoin="round" stroke-miterlimit="10" d="
	M280.439,317.982"/>
<line fill="none" stroke="#B61E3F" stroke-width="2" stroke-miterlimit="10" x1="348.275" y1="182.981" x2="526.859" y2="182.981"/>
<g>
	<rect x="422.963" y="216.699" fill="#B61E3F" width="30.466" height="8.404"/>
	<rect x="422.963" y="252.419" fill="#B61E3F" width="30.466" height="8.405"/>
	<rect x="433.994" y="224.369" fill="#B61E3F" width="8.404" height="28.051"/>
</g>
<line fill="none" stroke="#B61E3F" stroke-width="0.5" stroke-miterlimit="10" stroke-dasharray="0.85" x1="397.525" y1="216.699" x2="477.025" y2="216.699"/>
<line fill="none" stroke="#B61E3F" stroke-width="0.5" stroke-miterlimit="10" stroke-dasharray="0.85" x1="397.525" y1="225.103" x2="477.025" y2="225.103"/>
<line fill="none" stroke="#B61E3F" stroke-width="0.5" stroke-miterlimit="10" stroke-dasharray="0.85" x1="397.525" y1="252.419" x2="477.025" y2="252.419"/>
<line fill="none" stroke="#B61E3F" stroke-width="0.5" stroke-miterlimit="10" stroke-dasharray="0.85" x1="422.963" y1="201.066" x2="422.963" y2="280.566"/>
<line fill="none" stroke="#B61E3F" stroke-width="0.5" stroke-miterlimit="10" stroke-dasharray="0.85" x1="453.43" y1="201.066" x2="453.43" y2="280.566"/>
<line fill="none" stroke="#B61E3F" stroke-width="0.5" stroke-miterlimit="10" stroke-dasharray="0.85" x1="433.994" y1="201.066" x2="433.994" y2="280.566"/>
<line fill="none" stroke="#B61E3F" stroke-width="0.5" stroke-miterlimit="10" stroke-dasharray="0.85" x1="442.398" y1="201.066" x2="442.398" y2="280.566"/>
<line fill="none" stroke="#B61E3F" stroke-width="0.5" stroke-miterlimit="10" stroke-dasharray="0.85" x1="397.525" y1="260.824" x2="477.025" y2="260.824"/>
<polygon fill="none" stroke="#B61E3F" stroke-width="2" stroke-miterlimit="10" points="484.525,317.982 542.357,241.774 
	542.357,317.982 "/>
<polygon fill="none" stroke="#B61E3F" stroke-width="2" stroke-miterlimit="10" points="510.307,306.115 530.465,276.551 
	530.465,306.115 "/>
<path fill="#FFFFFF" stroke="#231F20" stroke-width="2" stroke-miterlimit="10" d="M539.025,317.982"/>
<path fill="#FFFFFF" stroke="#231F20" stroke-width="2" stroke-miterlimit="10" d="M539.025,241.774"/>
<line fill="none" stroke="#B61E3F" stroke-width="2" stroke-miterlimit="10" x1="542.787" y1="311.68" x2="539.078" y2="311.68"/>
<line fill="none" stroke="#B61E3F" stroke-width="2" stroke-miterlimit="10" x1="542.787" y1="306.27" x2="539.078" y2="306.27"/>
<line fill="none" stroke="#B61E3F" stroke-width="2" stroke-miterlimit="10" x1="542.787" y1="300.861" x2="539.078" y2="300.861"/>
<line fill="none" stroke="#B61E3F" stroke-width="2" stroke-miterlimit="10" x1="542.787" y1="295.453" x2="539.078" y2="295.453"/>
<line fill="none" stroke="#B61E3F" stroke-width="2" stroke-miterlimit="10" x1="542.787" y1="290.045" x2="539.078" y2="290.045"/>
<line fill="none" stroke="#B61E3F" stroke-width="2" stroke-miterlimit="10" x1="542.787" y1="284.635" x2="539.078" y2="284.635"/>
<line fill="none" stroke="#B61E3F" stroke-width="2" stroke-miterlimit="10" x1="542.787" y1="279.227" x2="539.078" y2="279.227"/>
<line fill="none" stroke="#B61E3F" stroke-width="2" stroke-miterlimit="10" x1="542.787" y1="273.818" x2="539.078" y2="273.818"/>
<line fill="none" stroke="#B61E3F" stroke-width="2" stroke-miterlimit="10" x1="542.787" y1="268.408" x2="539.078" y2="268.408"/>
<line fill="none" stroke="#B61E3F" stroke-width="2" stroke-miterlimit="10" x1="542.787" y1="263" x2="539.078" y2="263"/>
<line fill="none" stroke="#B61E3F" stroke-width="2" stroke-miterlimit="10" x1="542.787" y1="257.592" x2="539.078" y2="257.592"/>
<line fill="none" stroke="#B61E3F" stroke-width="2" stroke-miterlimit="10" x1="542.787" y1="252.183" x2="539.078" y2="252.183"/>
<g>
	<g>
		<path fill="#B61E3F" d="M334.596,226.481v81.542h-4.333v-81.542H334.596 M336.596,224.481h-8.333v85.542h8.333V224.481
			L336.596,224.481z"/>
	</g>
</g>
<g>
	<g>
		<path fill="#B61E3F" d="M334.596,312.023v4.332h-4.333v-4.332H334.596 M336.596,310.023h-8.333v8.332h8.333V310.023
			L336.596,310.023z"/>
	</g>
</g>
<g>
	<polygon fill="#B61E3F" points="336.596,224.481 328.263,224.481 328.263,224.481 332.419,216.231 336.596,224.481 	"/>
</g>
<g>
	<g>
		<line fill="none" stroke="#B61E3F" stroke-miterlimit="10" x1="301.775" y1="250.044" x2="305.608" y2="250.044"/>
		<line fill="none" stroke="#B61E3F" stroke-miterlimit="10" x1="301.775" y1="251.731" x2="305.608" y2="251.731"/>
		<line fill="none" stroke="#B61E3F" stroke-miterlimit="10" x1="301.775" y1="253.419" x2="307.473" y2="253.419"/>
	</g>
	<g>
		<line fill="none" stroke="#B61E3F" stroke-miterlimit="10" x1="301.775" y1="255.231" x2="305.608" y2="255.231"/>
		<line fill="none" stroke="#B61E3F" stroke-miterlimit="10" x1="301.775" y1="256.919" x2="305.608" y2="256.919"/>
		<line fill="none" stroke="#B61E3F" stroke-miterlimit="10" x1="301.775" y1="258.606" x2="307.473" y2="258.606"/>
	</g>
	<g>
		<line fill="none" stroke="#B61E3F" stroke-miterlimit="10" x1="301.775" y1="260.419" x2="305.608" y2="260.419"/>
		<line fill="none" stroke="#B61E3F" stroke-miterlimit="10" x1="301.775" y1="262.106" x2="305.608" y2="262.106"/>
		<line fill="none" stroke="#B61E3F" stroke-miterlimit="10" x1="301.775" y1="263.794" x2="307.473" y2="263.794"/>
	</g>
	<g>
		<line fill="none" stroke="#B61E3F" stroke-miterlimit="10" x1="301.775" y1="265.606" x2="305.608" y2="265.606"/>
		<line fill="none" stroke="#B61E3F" stroke-miterlimit="10" x1="301.775" y1="267.294" x2="305.608" y2="267.294"/>
		<line fill="none" stroke="#B61E3F" stroke-miterlimit="10" x1="301.775" y1="268.981" x2="307.473" y2="268.981"/>
	</g>
	<g>
		<line fill="none" stroke="#B61E3F" stroke-miterlimit="10" x1="301.775" y1="270.794" x2="305.608" y2="270.794"/>
		<line fill="none" stroke="#B61E3F" stroke-miterlimit="10" x1="301.775" y1="272.481" x2="305.608" y2="272.481"/>
		<line fill="none" stroke="#B61E3F" stroke-miterlimit="10" x1="301.775" y1="274.17" x2="307.473" y2="274.17"/>
	</g>
	<g>
		<line fill="none" stroke="#B61E3F" stroke-miterlimit="10" x1="301.775" y1="275.982" x2="305.608" y2="275.982"/>
		<line fill="none" stroke="#B61E3F" stroke-miterlimit="10" x1="301.775" y1="277.67" x2="305.608" y2="277.67"/>
		<line fill="none" stroke="#B61E3F" stroke-miterlimit="10" x1="301.775" y1="279.357" x2="307.473" y2="279.357"/>
	</g>
	<g>
		<line fill="none" stroke="#B61E3F" stroke-miterlimit="10" x1="301.775" y1="281.17" x2="305.608" y2="281.17"/>
		<line fill="none" stroke="#B61E3F" stroke-miterlimit="10" x1="301.775" y1="282.857" x2="305.608" y2="282.857"/>
		<line fill="none" stroke="#B61E3F" stroke-miterlimit="10" x1="301.775" y1="284.545" x2="307.473" y2="284.545"/>
	</g>
	<g>
		<line fill="none" stroke="#B61E3F" stroke-miterlimit="10" x1="301.775" y1="286.357" x2="305.608" y2="286.357"/>
		<line fill="none" stroke="#B61E3F" stroke-miterlimit="10" x1="301.775" y1="288.045" x2="305.608" y2="288.045"/>
		<line fill="none" stroke="#B61E3F" stroke-miterlimit="10" x1="301.775" y1="289.732" x2="307.473" y2="289.732"/>
	</g>
	<g>
		<line fill="none" stroke="#B61E3F" stroke-miterlimit="10" x1="301.775" y1="291.545" x2="305.608" y2="291.545"/>
		<line fill="none" stroke="#B61E3F" stroke-miterlimit="10" x1="301.775" y1="293.232" x2="305.608" y2="293.232"/>
		<line fill="none" stroke="#B61E3F" stroke-miterlimit="10" x1="301.775" y1="294.92" x2="307.473" y2="294.92"/>
	</g>
	<g>
		<line fill="none" stroke="#B61E3F" stroke-miterlimit="10" x1="301.775" y1="296.732" x2="305.608" y2="296.732"/>
		<line fill="none" stroke="#B61E3F" stroke-miterlimit="10" x1="301.775" y1="298.42" x2="305.608" y2="298.42"/>
		<line fill="none" stroke="#B61E3F" stroke-miterlimit="10" x1="301.775" y1="300.107" x2="307.473" y2="300.107"/>
	</g>
	<g>
		<line fill="none" stroke="#B61E3F" stroke-miterlimit="10" x1="301.775" y1="301.92" x2="305.608" y2="301.92"/>
		<line fill="none" stroke="#B61E3F" stroke-miterlimit="10" x1="301.775" y1="303.607" x2="305.608" y2="303.607"/>
		<line fill="none" stroke="#B61E3F" stroke-miterlimit="10" x1="301.775" y1="305.295" x2="307.473" y2="305.295"/>
	</g>
	<g>
		<line fill="none" stroke="#B61E3F" stroke-miterlimit="10" x1="301.775" y1="307.107" x2="305.608" y2="307.107"/>
		<line fill="none" stroke="#B61E3F" stroke-miterlimit="10" x1="301.775" y1="308.795" x2="305.608" y2="308.795"/>
		<line fill="none" stroke="#B61E3F" stroke-miterlimit="10" x1="301.775" y1="310.482" x2="307.473" y2="310.482"/>
	</g>
	<g>
		<line fill="none" stroke="#B61E3F" stroke-miterlimit="10" x1="301.775" y1="312.295" x2="305.608" y2="312.295"/>
		<line fill="none" stroke="#B61E3F" stroke-miterlimit="10" x1="301.775" y1="313.982" x2="305.608" y2="313.982"/>
		<line fill="none" stroke="#B61E3F" stroke-miterlimit="10" x1="301.775" y1="315.67" x2="307.473" y2="315.67"/>
	</g>
</g>
<rect x="301.775" y="247.731" fill="none" stroke="#B61E3F" stroke-width="2" stroke-miterlimit="10" width="18.75" height="70.251"/>
<circle fill="#B61E3F" cx="359.793" cy="177.054" r="1.676"/>
<circle fill="#B61E3F" cx="365.199" cy="177.054" r="1.676"/>
<circle fill="#B61E3F" cx="370.605" cy="177.054" r="1.676"/>
<circle fill="#B61E3F" cx="563.94" cy="310.985" r="1.917"/>
<text transform="matrix(-4.371140e-08 1 -1 -4.371140e-08 300.8789 235.5649)" fill="#B61E3F" font-family="'Roboto-Bold'" font-size="11.9383">v</text>
<text transform="matrix(4.366649e-08 1 1 -4.366649e-08 320.3076 235.7632)" fill="#B61E3F" font-family="'Roboto-Bold'" font-size="11.9383">v</text>
<text transform="matrix(1 0 0 1 308.937 241.5098)" fill="#B61E3F" font-family="'Roboto-Bold'" font-size="9.1337">/</text>
<path fill="#B61E3F" d="M299.86,222.53v7.67h21.66v-7.67H299.86z M318.46,227.32h-15.54v-1.91h15.54V227.32z"/>
<polygon fill="#B61E3F" points="319.347,229.698 319.347,232.968 315.661,229.698 "/>
</svg>
