<?xml version="1.0" encoding="utf-8"?>
<!-- Generator: Adobe Illustrator 16.0.0, SVG Export Plug-In . SVG Version: 6.00 Build 0)  -->
<!DOCTYPE svg PUBLIC "-//W3C//DTD SVG 1.1//EN" "http://www.w3.org/Graphics/SVG/1.1/DTD/svg11.dtd">
<svg version="1.1" id="Layer_1" xmlns="http://www.w3.org/2000/svg" xmlns:xlink="http://www.w3.org/1999/xlink" x="0px" y="0px"
	 width="864px" height="504px" viewBox="0 0 864 504" enable-background="new 0 0 864 504" xml:space="preserve">
<g>
	<g>
		<path fill="none" stroke="#B61E3F" stroke-width="2" stroke-miterlimit="10" d="M495.25,203.98v32.32h-43.73
			c-4.02-6.68-9.52-12.36-16.05-16.6v-15.72h8.03v11.2h14.36v-11.2h15.63v11.2h13.729v-11.2H495.25z"/>
		
			<line fill="none" stroke="#B61E3F" stroke-width="2" stroke-miterlimit="10" x1="487.644" y1="236.299" x2="487.644" y2="251.523"/>
		
			<line fill="none" stroke="#B61E3F" stroke-width="2" stroke-miterlimit="10" x1="491.761" y1="261.012" x2="491.761" y2="280.656"/>
		<polyline fill="none" stroke="#B61E3F" stroke-width="2" stroke-miterlimit="10" points="457.76,252.14 495.25,252.14 
			495.25,261.01 491.76,261.01 458.81,261.01 		"/>
		<line fill="none" stroke="#B61E3F" stroke-width="2" stroke-miterlimit="10" x1="439.91" y1="261.01" x2="439.03" y2="261.01"/>
		<polyline fill="none" stroke="#B61E3F" stroke-width="2" stroke-miterlimit="10" points="497.63,290.58 497.63,280.66 
			491.76,280.66 455.62,280.66 		"/>
		<polyline fill="none" stroke="#B61E3F" stroke-width="2" stroke-miterlimit="10" points="450.63,290.58 497.63,290.58 
			503.06,290.58 503.06,310.23 428.5,310.23 428.5,309.56 		"/>
	</g>
	<path fill="none" stroke="#B61E3F" stroke-width="2" stroke-miterlimit="10" d="M435.47,219.7c-8.029-5.23-17.62-8.26-27.91-8.26
		c-19.199,0-35.93,10.54-44.72,26.15c-4.18,7.43-6.57,16-6.57,25.141c0,28.319,22.961,51.289,51.29,51.289
		c7.46,0,14.551-1.59,20.94-4.46c9.09-4.069,16.77-10.699,22.13-18.979c2.01-3.09,3.69-6.41,4.99-9.92
		c2.09-5.58,3.229-11.62,3.229-17.93c0-0.58-0.01-1.15-0.04-1.721c-0.09-3.029-0.449-6-1.05-8.87c-1.2-5.68-3.33-11.02-6.24-15.84"
		/>
	<path fill="none" stroke="#B61E3F" stroke-width="2" stroke-linecap="round" stroke-linejoin="round" stroke-miterlimit="10" d="
		M376.76,255.971c-0.479,2.18-0.729,4.439-0.729,6.76c0,17.409,14.12,31.52,31.529,31.52c17.41,0,31.521-14.11,31.521-31.52
		c0-0.58-0.021-1.15-0.05-1.721c-0.16-3.1-0.78-6.08-1.771-8.87c-4.35-12.2-16.01-20.94-29.7-20.94
		c-11.93,0-22.31,6.62-27.659,16.39"/>
	<circle fill="#B61E3F" cx="407.557" cy="262.729" r="12.684"/>
	<g>
		
			<line fill="none" stroke="#B61E3F" stroke-width="2" stroke-miterlimit="10" x1="313.747" y1="208.816" x2="407.557" y2="263.803"/>
		<polygon fill="none" stroke="#B61E3F" stroke-width="2" stroke-miterlimit="10" points="324.599,205.191 343.599,216.316 
			343.599,226.515 325.9,216.021 		"/>
		<polygon fill="none" stroke="#B61E3F" stroke-width="2" stroke-miterlimit="10" points="325.423,215.739 343.599,226.515 
			335.286,230.503 316.724,219.816 		"/>
	</g>
</g>
</svg>
