<?xml version="1.0" encoding="utf-8"?>
<!-- Generator: Adobe Illustrator 16.0.0, SVG Export Plug-In . SVG Version: 6.00 Build 0)  -->
<!DOCTYPE svg PUBLIC "-//W3C//DTD SVG 1.1//EN" "http://www.w3.org/Graphics/SVG/1.1/DTD/svg11.dtd">
<svg version="1.1" id="Layer_1" xmlns="http://www.w3.org/2000/svg" xmlns:xlink="http://www.w3.org/1999/xlink" x="0px" y="0px"
	 width="864px" height="504px" viewBox="0 0 864 504" enable-background="new 0 0 864 504" xml:space="preserve">
<g>
	<path fill="none" stroke="#B61E3F" stroke-width="2" stroke-miterlimit="10" d="M459.83,267.85c-2.73,0.95-5.69-0.489-6.64-3.21
		c-0.95-2.72,0.489-5.689,3.21-6.649L459.83,267.85z"/>
	<path fill="#231F20" stroke="#000000" stroke-width="1.4613" stroke-miterlimit="10" d="M473.94,240.872"/>
	
		<ellipse transform="matrix(0.9445 -0.3286 0.3286 0.9445 -50.5829 184.1316)" fill="none" stroke="#B61E3F" stroke-width="2" stroke-miterlimit="10" cx="519.557" cy="241.741" rx="5.691" ry="29.42"/>
	
		<line fill="none" stroke="#B61E3F" stroke-width="2" stroke-linecap="round" stroke-linejoin="round" stroke-miterlimit="10" x1="523.188" y1="221.977" x2="538.088" y2="201.731"/>
	
		<line fill="none" stroke="#B61E3F" stroke-width="2" stroke-linecap="round" stroke-linejoin="round" stroke-miterlimit="10" x1="528.512" y1="230.414" x2="540.033" y2="220.722"/>
	
		<line fill="none" stroke="#B61E3F" stroke-width="2" stroke-linecap="round" stroke-linejoin="round" stroke-miterlimit="10" x1="532.437" y1="237.45" x2="555.66" y2="229.371"/>
	
		<line fill="none" stroke="#B61E3F" stroke-width="2" stroke-linecap="round" stroke-linejoin="round" stroke-miterlimit="10" x1="533.803" y1="245.627" x2="549.329" y2="246.137"/>
	
		<line fill="none" stroke="#B61E3F" stroke-width="2" stroke-linecap="round" stroke-linejoin="round" stroke-miterlimit="10" x1="534.673" y1="254.986" x2="559.727" y2="262.302"/>
	<path fill="none" stroke="#B61E3F" stroke-width="2" stroke-linecap="round" stroke-linejoin="round" stroke-miterlimit="10" d="
		M502.076,226.146c2.581-2.36,4.838-4.99,6.48-7.889"/>
	<path fill="none" stroke="#B61E3F" stroke-width="2" stroke-linecap="round" stroke-linejoin="round" stroke-miterlimit="10" d="
		M474.117,241.378c0,0,14.373-4.365,25.26-12.944"/>
	<path fill="none" stroke="#B61E3F" stroke-width="2" stroke-miterlimit="10" d="M484.258,270.525c0,0,25.562-9.25,41.848-2.636"/>
	<path fill="none" stroke="#B61E3F" stroke-width="2" stroke-miterlimit="10" d="M482.165,249.151c0,0,20.009-7.188,22.659-12.315"
		/>
	<path fill="none" stroke="#B61E3F" stroke-width="2" stroke-miterlimit="10" d="M485.833,259.699c0,0,15.239-5.87,25.747-4.75"/>
	<path fill="none" stroke="#B61E3F" stroke-width="2" stroke-miterlimit="10" d="M512.56,238.647
		c2.725-0.948,5.698,0.492,6.646,3.215c0.948,2.724-0.492,5.699-3.215,6.646"/>
	<path fill="none" stroke="#B61E3F" stroke-width="2" stroke-miterlimit="10" d="M482.12,273.36l9.72,8.779
		c0.58,0.53,0.66,1.4,0.17,1.94l-3.479,3.85c-0.49,0.54-1.36,0.561-1.94,0.03l-12.91-11.67"/>
	<path fill="none" stroke="#B61E3F" stroke-width="2" stroke-miterlimit="10" d="M459.84,267.85l1.48,4.271
		c0.5,1.43,1.72,2.31,2.729,1.96l4.53-1.58"/>
	<path fill="none" stroke="#B61E3F" stroke-width="2" stroke-miterlimit="10" d="M456.4,257.99l-1.48-4.26
		c-0.5-1.44-0.08-2.88,0.93-3.23l4.521-1.58"/>
	<path fill="none" stroke="#000000" stroke-width="1.4613" stroke-miterlimit="10" d="M484.168,270.596
		c0.351,1.009-0.184,2.109-1.191,2.461l-10.852,3.775c-1.008,0.351-2.109-0.184-2.459-1.19l-10.215-29.36
		c-0.35-1.008,0.184-2.11,1.19-2.461l10.851-3.775c1.01-0.351,2.111,0.183,2.462,1.19L484.168,270.596z"/>
	<path fill="none" stroke="#B61E3F" stroke-width="2" stroke-miterlimit="10" d="M484.168,270.596
		c0.351,1.009-0.184,2.109-1.191,2.461l-10.852,3.775c-1.008,0.351-2.109-0.184-2.459-1.19l-10.215-29.36
		c-0.35-1.008,0.184-2.11,1.19-2.461l10.851-3.775c1.01-0.351,2.111,0.183,2.462,1.19L484.168,270.596z"/>
	<path fill="none" stroke="#B61E3F" stroke-width="2" stroke-miterlimit="10" d="M489.076,269.021c0,0,2.113,5.465-3.837,7.156"/>
	<path fill="none" stroke="#B61E3F" stroke-width="2" stroke-miterlimit="10" d="M363.391,224.471v71.479
		c0,7.771,4.927,14.069,11.006,14.069c6.078,0,11.006-6.298,11.006-14.069v-71.479H363.391z"/>
	<path fill="none" stroke="#B61E3F" stroke-width="2" stroke-linecap="round" stroke-linejoin="round" stroke-miterlimit="10" d="
		M497.482,219.025c0-15.635,0-17.091,0-17.091h-112.08v22.536"/>
	<path fill="none" stroke="#B61E3F" stroke-width="2" stroke-linecap="round" stroke-miterlimit="10" d="M374.396,310.019H479
		c0,0,18.482-1.654,18.482-15.747c0-3.563,0-11.229,0-20.692"/>
	<path fill="none" stroke="#000000" stroke-width="1.2838" stroke-miterlimit="10" d="M463.479,303.433"/>
	<path fill="none" stroke="#000000" stroke-width="1.2838" stroke-miterlimit="10" d="M400.707,303.433"/>
	<rect x="401.041" y="216.921" fill="#B61E3F" width="77.762" height="17.294"/>
	
		<line fill="none" stroke="#B61E3F" stroke-width="2" stroke-miterlimit="10" x1="402.166" y1="240.872" x2="446.567" y2="240.872"/>
	
		<line fill="none" stroke="#B61E3F" stroke-width="2" stroke-miterlimit="10" x1="402.166" y1="248.437" x2="446.567" y2="248.437"/>
	
		<line fill="none" stroke="#B61E3F" stroke-width="2" stroke-miterlimit="10" x1="402.166" y1="256.002" x2="446.567" y2="256.002"/>
	
		<line fill="none" stroke="#B61E3F" stroke-width="2" stroke-miterlimit="10" x1="402.166" y1="263.568" x2="446.567" y2="263.568"/>
	
		<line fill="none" stroke="#B61E3F" stroke-width="2" stroke-miterlimit="10" x1="402.166" y1="271.134" x2="446.567" y2="271.134"/>
	
		<line fill="none" stroke="#B61E3F" stroke-width="2" stroke-miterlimit="10" x1="402.166" y1="278.699" x2="465.667" y2="278.699"/>
	
		<line fill="none" stroke="#B61E3F" stroke-width="2" stroke-miterlimit="10" x1="402.166" y1="286.265" x2="477.167" y2="286.265"/>
	<line fill="none" stroke="#B61E3F" stroke-width="2" stroke-miterlimit="10" x1="402.166" y1="293.83" x2="477.167" y2="293.83"/>
</g>
</svg>
