<?xml version="1.0" encoding="utf-8"?>
<!-- Generator: Adobe Illustrator 16.0.0, SVG Export Plug-In . SVG Version: 6.00 Build 0)  -->
<!DOCTYPE svg PUBLIC "-//W3C//DTD SVG 1.1//EN" "http://www.w3.org/Graphics/SVG/1.1/DTD/svg11.dtd">
<svg version="1.1" id="Layer_1" xmlns="http://www.w3.org/2000/svg" xmlns:xlink="http://www.w3.org/1999/xlink" x="0px" y="0px"
	 width="864px" height="504px" viewBox="0 0 864 504" enable-background="new 0 0 864 504" xml:space="preserve">
<line fill="none" stroke="#B61E3F" stroke-width="2" stroke-linecap="round" stroke-linejoin="round" stroke-miterlimit="10" x1="249.988" y1="318.629" x2="614.781" y2="318.629"/>
<path fill="none" stroke="#B61E3F" stroke-width="2" stroke-miterlimit="10" d="M504.469,224.647v61.98c0,6.63-4.471,12-9.98,12
	h-157.83"/>
<path fill="none" stroke="#B61E3F" stroke-width="2" stroke-miterlimit="10" d="M470.777,171.627h23.711c5.51,0,9.98,5.37,9.98,12
	v29.52"/>
<path fill="none" stroke="#B61E3F" stroke-width="2" stroke-miterlimit="10" d="M357.447,171.627h-23c-5.51,0-9.979,5.37-9.979,12
	v65.02"/>
<g>
	
		<line fill="none" stroke="#B61E3F" stroke-width="2" stroke-miterlimit="10" x1="399.469" y1="298.629" x2="399.469" y2="318.629"/>
	
		<line fill="none" stroke="#B61E3F" stroke-width="2" stroke-miterlimit="10" x1="429.469" y1="298.629" x2="429.469" y2="318.629"/>
</g>
<line fill="none" stroke="#B61E3F" stroke-width="2" stroke-miterlimit="10" x1="504.469" y1="183.627" x2="470.777" y2="183.627"/>
<line fill="none" stroke="#B61E3F" stroke-width="2" stroke-miterlimit="10" x1="357.447" y1="183.627" x2="324.469" y2="183.627"/>
<circle fill="#B61E3F" cx="334.068" cy="177.806" r="1.676"/>
<circle fill="#B61E3F" cx="339.475" cy="177.806" r="1.676"/>
<circle fill="#B61E3F" cx="344.881" cy="177.806" r="1.676"/>
<path fill="none" stroke="#231F20" stroke-width="2" stroke-miterlimit="10" d="M504.469,218.024"/>
<rect x="357.447" y="124.306" fill="none" stroke="#B61E3F" stroke-width="2" stroke-miterlimit="10" width="113.334" height="156.333"/>
<rect x="373.115" y="138.722" fill="none" stroke="#B61E3F" stroke-width="2" stroke-miterlimit="10" width="82" height="9.625"/>
<rect x="367.041" y="189.357" fill="none" stroke="#B61E3F" stroke-width="2" stroke-miterlimit="10" width="94" height="19.125"/>
<line fill="none" stroke="#B61E3F" stroke-width="2" stroke-miterlimit="10" x1="444.719" y1="138.722" x2="444.719" y2="148.347"/>
<rect x="373.115" y="157.576" fill="none" stroke="#B61E3F" stroke-width="2" stroke-miterlimit="10" width="9.625" height="9.625"/>
<g>
	
		<line fill="none" stroke="#B61E3F" stroke-width="2" stroke-miterlimit="10" x1="386.406" y1="158.117" x2="455.115" y2="158.117"/>
	<line fill="none" stroke="#B61E3F" stroke-width="2" stroke-miterlimit="10" x1="386.406" y1="166.66" x2="455.115" y2="166.66"/>
</g>
<rect x="373.115" y="175.847" fill="none" stroke="#B61E3F" stroke-width="2" stroke-miterlimit="10" width="9.625" height="9.625"/>
<g>
	
		<line fill="none" stroke="#B61E3F" stroke-width="2" stroke-miterlimit="10" x1="386.406" y1="176.388" x2="455.115" y2="176.388"/>
	
		<line fill="none" stroke="#B61E3F" stroke-width="2" stroke-miterlimit="10" x1="386.406" y1="184.931" x2="455.115" y2="184.931"/>
</g>
<g>
	
		<rect x="373.041" y="194.107" fill="none" stroke="#B61E3F" stroke-width="2" stroke-miterlimit="10" width="9.625" height="9.625"/>
	<g>
		
			<line fill="none" stroke="#B61E3F" stroke-width="2" stroke-miterlimit="10" x1="386.334" y1="194.648" x2="455.041" y2="194.648"/>
		
			<line fill="none" stroke="#B61E3F" stroke-width="2" stroke-miterlimit="10" x1="386.334" y1="203.191" x2="455.041" y2="203.191"/>
	</g>
</g>
<rect x="373.115" y="212.388" fill="none" stroke="#B61E3F" stroke-width="2" stroke-miterlimit="10" width="9.625" height="9.625"/>
<g>
	
		<line fill="none" stroke="#B61E3F" stroke-width="2" stroke-miterlimit="10" x1="386.406" y1="212.929" x2="455.115" y2="212.929"/>
	
		<line fill="none" stroke="#B61E3F" stroke-width="2" stroke-miterlimit="10" x1="386.406" y1="221.472" x2="455.115" y2="221.472"/>
</g>
<rect x="373.115" y="230.658" fill="none" stroke="#B61E3F" stroke-width="2" stroke-miterlimit="10" width="9.625" height="9.625"/>
<g>
	
		<line fill="none" stroke="#B61E3F" stroke-width="2" stroke-miterlimit="10" x1="386.406" y1="231.199" x2="455.115" y2="231.199"/>
	
		<line fill="none" stroke="#B61E3F" stroke-width="2" stroke-miterlimit="10" x1="386.406" y1="239.742" x2="455.115" y2="239.742"/>
</g>
<rect x="373.115" y="248.929" fill="none" stroke="#B61E3F" stroke-width="2" stroke-miterlimit="10" width="9.625" height="9.625"/>
<g>
	<line fill="none" stroke="#B61E3F" stroke-width="2" stroke-miterlimit="10" x1="386.406" y1="249.47" x2="455.115" y2="249.47"/>
	
		<line fill="none" stroke="#B61E3F" stroke-width="2" stroke-miterlimit="10" x1="386.406" y1="258.013" x2="455.115" y2="258.013"/>
</g>
<path fill="none" stroke="#B61E3F" stroke-width="2" stroke-miterlimit="10" d="M498.098,147.163h-20.51
	c-0.926,0-1.684,0.757-1.684,1.684v12.741c0,0.927,0.758,1.684,1.684,1.684h5.752l4.994,4.994l4.994-4.994h4.77
	c0.926,0,1.684-0.757,1.684-1.684v-12.741C499.781,147.92,499.023,147.163,498.098,147.163z"/>
<path fill="#B61E3F" d="M485.541,151.93c-1.023,0-1.854,0.841-1.854,1.362c0-0.521-0.832-1.362-1.855-1.362
	c-1.025,0-2.203,0.9-2.203,2.522c0,3.42,4.059,4.577,4.059,4.577s4.057-1.157,4.057-4.577
	C487.744,152.83,486.566,151.93,485.541,151.93z"/>
<text transform="matrix(1 0 0 1 489.8887 157.9277)" fill="#B61E3F" font-family="'Roboto-Bold'" font-size="7.1867">4</text>
<g>
	<path fill="#B61E3F" d="M476.816,130.885l-1.414-3.31c0.285-0.121,0.568-0.257,0.844-0.406c0.422-0.229,0.83-0.488,1.211-0.773
		l2.148,2.889c-0.52,0.387-1.074,0.74-1.646,1.05C477.588,130.536,477.201,130.721,476.816,130.885z M483.688,124.361l-3.234-1.578
		c0.346-0.711,0.609-1.463,0.779-2.236l3.516,0.777C484.516,122.374,484.16,123.395,483.688,124.361z M461.549,119.115l-3.59,0.256
		c-0.076-1.072-0.025-2.154,0.154-3.216l3.549,0.598C461.531,117.535,461.492,118.329,461.549,119.115z M481.137,115.854
		c-0.201-0.762-0.494-1.502-0.875-2.2l3.166-1.715c0.514,0.95,0.914,1.956,1.188,2.992L481.137,115.854z M478.188,111.008
		c-0.584-0.529-1.234-0.988-1.928-1.367l1.715-3.164c0.947,0.515,1.83,1.141,2.627,1.861L478.188,111.008z M463.508,112.431
		l-2.883-2.153c0.643-0.863,1.391-1.648,2.223-2.334l2.291,2.777C464.529,111.222,463.98,111.799,463.508,112.431z M471.715,108.432
		c-0.789-0.018-1.578,0.059-2.352,0.228l-0.771-3.516c1.053-0.231,2.133-0.334,3.207-0.31L471.715,108.432z"/>
</g>
<g>
	<path fill="none" stroke="#B61E3F" stroke-width="2" stroke-miterlimit="10" d="M336.656,312.002c0,3.5-2.864,6.364-6.364,6.364
		h-25.459c-3.5,0-6.364-2.864-6.364-6.364v-51.896c0-3.5,2.864-6.364,6.364-6.364h25.459c3.5,0,6.364,2.864,6.364,6.364V312.002z"/>
</g>
<circle fill="#B61E3F" cx="317.562" cy="313.39" r="2.417"/>
<line fill="none" stroke="#B61E3F" stroke-width="2" stroke-miterlimit="10" x1="298.469" y1="307.473" x2="335.969" y2="307.473"/>
<line fill="none" stroke="#B61E3F" stroke-width="2" stroke-miterlimit="10" x1="298.469" y1="263.306" x2="335.969" y2="263.306"/>
<line fill="none" stroke="#B61E3F" stroke-width="2" stroke-linecap="round" stroke-linejoin="round" stroke-miterlimit="10" x1="313.801" y1="259.306" x2="320.635" y2="259.306"/>
<g>
	<path fill="#B61E3F" d="M308.59,283.663l-1.381-0.003c-0.035,0-0.062-0.03-0.062-0.064v-6.877c0-0.163-0.094-0.313-0.24-0.387
		l-1.564-0.783l1.564-0.78c0.146-0.072,0.24-0.225,0.24-0.388v-1.726c0-0.034,0.027-0.062,0.062-0.062h19.072
		c0.033,0,0.062,0.028,0.062,0.062v9.715c0,0.237,0.193,0.433,0.432,0.433s0.43-0.195,0.43-0.433v-9.715
		c0-0.509-0.412-0.925-0.924-0.925h-19.072c-0.51,0-0.926,0.416-0.926,0.925v1.461l-2.1,1.049c-0.145,0.071-0.236,0.221-0.236,0.384
		c0,0.164,0.09,0.313,0.236,0.387l2.1,1.05v6.61c0,0.512,0.416,0.927,0.926,0.927l1.377,0.004c0.242,0,0.434-0.192,0.434-0.431
		C309.021,283.858,308.828,283.663,308.59,283.663L308.59,283.663z M308.59,283.663"/>
	<path fill="#B61E3F" d="M330.49,285.87c0-1.216-0.988-2.207-2.205-2.207h-5.398c0.953-1.749,1.471-3.925,1.471-6.211
		c0-1.219-0.99-2.207-2.207-2.207c-1.215,0-2.207,0.988-2.207,2.207c0,3.425-2.785,6.211-6.211,6.211h-3.42
		c-0.238,0-0.43,0.193-0.43,0.432v14.202c0,0.239,0.191,0.433,0.43,0.433h3.42c0.238,0,0.432-0.193,0.432-0.433v-13.784
		c3.701-0.224,6.643-3.304,6.643-7.061c0-0.74,0.604-1.345,1.344-1.345c0.742,0,1.346,0.604,1.346,1.345
		c0,2.42-0.615,4.698-1.729,6.407c-0.086,0.133-0.094,0.303-0.018,0.44c0.076,0.14,0.221,0.227,0.379,0.227h6.156
		c0.74,0,1.344,0.603,1.344,1.344c0,0.74-0.604,1.345-1.344,1.345h-2.182c-0.238,0-0.432,0.191-0.432,0.429
		c0,0.24,0.193,0.433,0.432,0.433h1.455c0.74,0,1.344,0.604,1.344,1.346c0,0.74-0.604,1.344-1.344,1.344h-1.455
		c-0.238,0-0.432,0.193-0.432,0.431c0,0.238,0.193,0.433,0.432,0.433h0.727c0.742,0,1.346,0.603,1.346,1.343
		c0,0.741-0.604,1.345-1.346,1.345h-0.727c-0.238,0-0.432,0.192-0.432,0.431c0,0.237,0.193,0.432,0.432,0.432
		c0.742,0,1.344,0.604,1.344,1.344c0,0.741-0.602,1.345-1.344,1.345h-10.646c-0.238,0-0.43,0.19-0.43,0.43s0.191,0.433,0.43,0.433
		h10.646c1.217,0,2.207-0.989,2.207-2.207c0-0.589-0.232-1.127-0.611-1.523c0.787-0.337,1.338-1.12,1.338-2.027
		c0-0.59-0.232-1.125-0.609-1.521c0.785-0.339,1.336-1.12,1.336-2.028c0-0.592-0.232-1.127-0.611-1.522
		C329.939,287.562,330.49,286.778,330.49,285.87L330.49,285.87z M313.301,297.867h-2.557v-13.341h2.557V297.867z M313.301,297.867"
		/>
	<path fill="#B61E3F" d="M324.809,296.574v-10.755c0-0.238-0.191-0.432-0.43-0.432s-0.432,0.193-0.432,0.432v10.755
		c0,0.237,0.193,0.43,0.432,0.43S324.809,296.812,324.809,296.574L324.809,296.574z M324.809,296.574"/>
</g>
<path fill="#B61E3F" d="M553.059,275.483c-9.773,0-13.244,6.354-13.244,11.795v19.038c0,5.441,3.471,11.795,13.244,11.795
	c9.775,0,13.242-6.354,13.242-11.795v-19.038C566.301,281.838,562.834,275.483,553.059,275.483L553.059,275.483z M564.438,306.316
	c0,1.145-0.219,4.065-2.256,6.455c-1.969,2.307-5.037,3.476-9.123,3.476s-7.156-1.169-9.121-3.476
	c-2.037-2.39-2.258-5.311-2.258-6.455v-19.038c0-1.145,0.221-4.063,2.258-6.455c1.965-2.307,5.035-3.476,9.121-3.476
	s7.154,1.169,9.123,3.476c2.037,2.392,2.256,5.311,2.256,6.455V306.316z M564.438,306.316"/>
<path fill="#B61E3F" d="M545.039,261.564c3.908,0,7.088,3.181,7.088,7.088v4.035c0,0.515,0.416,0.932,0.932,0.932
	s0.932-0.417,0.932-0.932v-4.035c0-4.936-4.016-8.952-8.951-8.952s-8.953,3.994-8.953,8.904v24.819c0,3.882-3.18,7.04-7.086,7.04
	c-3.908,0-7.088-3.18-7.088-7.087v-7.416c6.816-0.48,12.215-6.178,12.215-13.115c0-7.248-5.898-13.146-13.146-13.146
	c-7.25,0-13.146,5.897-13.146,13.146c0,6.938,5.396,12.635,12.215,13.115v7.416c0,4.935,4.016,8.951,8.951,8.951
	s8.951-3.994,8.951-8.904v-24.819C537.951,264.724,541.131,261.564,545.039,261.564L545.039,261.564z M509.697,272.846
	c0-6.22,5.062-11.281,11.283-11.281s11.281,5.062,11.281,11.281c0,6.223-5.061,11.284-11.281,11.284
	S509.697,279.068,509.697,272.846L509.697,272.846z M509.697,272.846"/>
<path fill="#B61E3F" d="M530.398,272.846c0-5.191-4.225-9.417-9.418-9.417c-2.148,0-4.252,0.746-5.922,2.1
	c-1.643,1.334-2.805,3.198-3.266,5.249c-0.113,0.503,0.203,1.003,0.705,1.114c0.502,0.114,1-0.201,1.113-0.705
	c0.77-3.414,3.867-5.895,7.369-5.895c4.166,0,7.553,3.391,7.553,7.554c0,4.167-3.387,7.555-7.553,7.555
	c-3.502,0-6.6-2.479-7.369-5.894c-0.113-0.503-0.611-0.817-1.113-0.704c-0.502,0.112-0.818,0.611-0.705,1.112
	c0.461,2.053,1.623,3.917,3.266,5.251c1.67,1.354,3.773,2.1,5.922,2.1C526.174,282.266,530.398,278.041,530.398,272.846
	L530.398,272.846z M530.398,272.846"/>
<path fill="#B61E3F" d="M553.99,295.865v-3.24c1.385-0.403,2.4-1.686,2.4-3.2v-4.424c0-1.514-1.016-2.794-2.4-3.198v-1.658
	c0-0.516-0.416-0.933-0.932-0.933s-0.932,0.417-0.932,0.933v1.658c-1.385,0.404-2.4,1.685-2.4,3.198v4.424
	c0,1.515,1.016,2.797,2.4,3.2v3.24h-7.65c-0.516,0-0.934,0.418-0.934,0.933c0,0.514,0.418,0.933,0.934,0.933h17.164
	c0.516,0,0.932-0.419,0.932-0.933c0-0.515-0.416-0.933-0.932-0.933H553.99z M551.59,289.425v-4.424c0-0.809,0.658-1.467,1.469-1.467
	s1.469,0.658,1.469,1.467v4.424c0,0.811-0.658,1.469-1.469,1.469S551.59,290.235,551.59,289.425L551.59,289.425z M551.59,289.425"/>
<text transform="matrix(1 0 0 1 516.7969 276.3545)" fill="#B61E3F" font-family="'Comfortaa-Bold'" font-size="10.1139">N</text>
<line fill="none" stroke="#B61E3F" stroke-miterlimit="10" x1="517.006" y1="273.216" x2="525.162" y2="273.216"/>
<line fill="none" stroke="#B61E3F" stroke-miterlimit="10" x1="517.006" y1="271.274" x2="525.162" y2="271.274"/>
<line fill="none" stroke="#B61E3F" stroke-linecap="round" stroke-linejoin="round" stroke-miterlimit="10" x1="311.123" y1="276.854" x2="317.875" y2="276.893"/>
<line fill="none" stroke="#B61E3F" stroke-linecap="round" stroke-linejoin="round" stroke-miterlimit="10" x1="311.123" y1="279.854" x2="317.875" y2="279.893"/>
</svg>
